<?xml version="1.0" encoding="UTF-8"?>
<svg id="Camada_2" data-name="Camada 2" xmlns="http://www.w3.org/2000/svg" viewBox="0 0 1871.44 900.21">
  <defs>
    <style>
      .cls-1 {
        fill: #202020;
      }
    </style>
  </defs>
  <g id="Camada_1-2" data-name="Camada 1">
    <g>
      <path class="cls-1" d="m1268.28,337.91c-7.23-3.9-16.72-5.87-28.47-5.87h-74.54v111.46h75.91c16.25,0,28.3-5.16,36.13-15.45,7.83-10.31,11.75-24.66,11.75-43.08,0-11.55-1.66-21.32-4.97-29.27-3.31-7.96-8.57-13.88-15.8-17.79Z"/>
      <path class="cls-1" d="m964.38,389.42c-1.35-4.52-2.86-9.53-4.5-14.98-1.66-5.46-3.25-11-4.75-16.63-1.51-5.62-2.88-10.61-4.07-14.98h-2.26c-1.81,5.62-3.77,12.26-5.87,19.9-2.11,7.66-4.22,14.83-6.33,21.54-2.11,6.73-3.92,12.11-5.42,16.16l-28.47,90.37h93.99l-28.47-90.37c-1.21-2.8-2.48-6.48-3.85-11Z"/>
      <path class="cls-1" d="m1619.24.97L175.06,132.43C75.91,141.45,0,224.59,0,324.15v251.92c0,99.56,75.91,182.7,175.06,191.72l1444.18,131.46c135.43,12.33,252.2-94.3,252.2-230.29V231.26c0-135.99-116.77-242.61-252.2-230.29ZM162.02,500.22c-.3,1.2,0-1.06,0,0h0Zm304.74,64.47c-13.39,15.92-31.63,27.57-54.66,34.94-23.04,7.36-49.17,11.04-78.39,11.04-24.1,0-46.46-1.57-67.09-4.73-20.64-3.16-38.86-8.58-54.68-16.23-15.81-7.66-28.15-18.33-37.05-32.02-7.78-11.98-11.81-31.19-12.69-49.73-.2-4.23,3.24-7.74,7.47-7.74h86.87c3.9,0,7.12,3,7.45,6.88.67,7.88,2.55,16.48,6.47,20.17,5.12,4.8,12.27,8.03,21.47,9.68,9.19,1.66,19.65,2.48,31.4,2.48,4.82,0,9.72-.07,14.68-.22,4.97-.15,9.86-.6,14.68-1.35,4.8-.75,9.17-1.89,13.1-3.38,3.9-1.51,7.01-3.53,9.27-6.09,2.26-2.56,3.38-5.79,3.38-9.7,0-5.42-2.93-9.77-8.8-13.08-5.88-3.31-13.86-5.92-23.95-7.88-10.09-1.96-21.39-3.83-33.89-5.64-12.5-1.79-25.52-3.98-39.08-6.54-13.54-2.54-26.58-6.09-39.08-10.59-12.5-4.5-23.8-10.37-33.89-17.58s-18.07-16.46-23.93-27.72c-5.88-11.28-8.82-24.87-8.82-40.8,0-18.05,4.22-33.37,12.65-46,8.44-12.63,19.95-22.83,34.56-30.66,14.61-7.81,31.33-13.53,50.16-17.13,18.81-3.61,38.63-5.4,59.41-5.4s40.73,1.79,58.96,5.4c18.22,3.61,34.41,9.25,48.57,16.91,14.14,7.66,25.37,17.51,33.65,29.54,7.22,10.46,11.3,23.96,12.24,41.22.23,4.29-3.17,7.92-7.47,7.92h-85.89c-3.57,0-6.66-2.52-7.32-6.03-.77-4.1-2.31-8.22-4.61-11.33-3.47-4.65-8.82-8.48-16.05-11.49-7.23-3.01-16.72-4.52-28.47-4.52s-21.45.92-29.13,2.71c-7.7,1.81-13.49,4.28-17.39,7.44-3.92,3.16-5.88,6.54-5.88,10.14,0,5.72,2.93,10.24,8.82,13.53,5.87,3.33,13.92,6.02,24.17,8.13,10.22,2.11,21.6,4.05,34.09,5.87,12.5,1.79,25.46,3.83,38.86,6.07,13.39,2.26,26.36,5.42,38.86,9.47,12.5,4.05,23.8,9.62,33.89,16.68s18.14,15.86,24.17,26.38c6.02,10.52,9.02,23.45,9.02,38.77,0,25.56-6.71,46.29-20.1,62.23Zm326.08,38.62c0,4.13-3.35,7.47-7.47,7.47h-66.84c-4.13,0-7.47-3.35-7.47-7.47v-121.58h-131.02v121.58c0,4.13-3.35,7.47-7.47,7.47h-66.38c-4.13,0-7.47-3.35-7.47-7.47v-306.29c0-4.13,3.35-7.47,7.47-7.47h66.38c4.13,0,7.47,3.35,7.47,7.47v115.51h131.02v-115.51c0-4.13,3.35-7.47,7.47-7.47h66.84c4.13,0,7.47,3.35,7.47,7.47v306.29Zm294.59,7.36h-45.58c-3.22,0-6.08-2.07-7.1-5.13l-21.36-64.65h-126.94l-21.36,64.65c-1.01,3.06-3.87,5.13-7.1,5.13h-42.87c-5.13,0-8.73-5.05-7.07-9.9l105.11-306.29c1.04-3.02,3.88-5.05,7.07-5.05h62.08c3.19,0,6.03,2.03,7.07,5.05l105.11,306.29c1.66,4.85-1.94,9.9-7.07,9.9Zm250.89,0h-35.69c-3.02,0-5.74-1.82-6.9-4.61l-50.04-120.42h-80.43v117.55c0,4.13-3.35,7.47-7.47,7.47h-32.96c-4.13,0-7.47-3.35-7.47-7.47v-306.29c0-4.13,3.35-7.47,7.47-7.47h120.85c22.27,0,40.05,4.07,53.3,12.18,13.25,8.13,22.96,19.21,29.14,33.25,6.17,14.05,9.27,30.13,9.27,48.22,0,21.86-3.92,40.6-11.75,56.2-7.83,15.62-19.13,27.16-33.89,34.66l53.45,126.35c2.08,4.93-1.53,10.38-6.88,10.38Zm130.54-282.53v272.68c0,4.13-3.35,7.47-7.47,7.47h-24.36c-4.13,0-7.47-3.35-7.47-7.47v-272.68h-72.49c-4.13,0-7.47-3.35-7.47-7.47v-20.92c0-4.13,3.35-7.47,7.47-7.47h184.3c4.13,0,7.47,3.35,7.47,7.47v20.92c0,4.13-3.35,7.47-7.47,7.47h-72.51Zm230.07,244.59c-7.08,13.25-16.87,22.89-29.37,28.9-12.5,6.03-26.88,9.04-43.16,9.04-12.05,0-23.11-1.35-33.2-4.07-10.09-2.71-18.68-7.45-25.76-14.22-7.08-6.78-12.5-16.2-16.25-28.25-3.77-12.03-5.64-27.26-5.64-45.62v-2.85c0-2.68,2.17-4.84,4.84-4.84h21.92c2.62,0,4.84,2.08,4.84,4.7v4.35c0,15.08,1.51,27.18,4.52,36.37,3.01,9.19,8.05,15.9,15.13,20.1,7.08,4.22,16.94,6.33,29.59,6.33,6.33,0,12.12-.69,17.41-2.04,5.25-1.36,9.99-3.62,14.22-6.78s7.68-7.06,10.41-11.75c2.71-4.65,4.8-10.31,6.31-16.94,1.51-6.61,2.26-14.29,2.26-23.03,0-10.54-1.81-19.35-5.42-26.44-3.62-7.06-8.44-12.95-14.46-17.62-6.03-4.67-12.82-8.87-20.33-12.65-7.53-3.76-15.3-7.38-23.28-10.84-7.98-3.47-15.66-7.3-23.04-11.53-7.38-4.22-14.16-9.57-20.33-16.05-6.18-6.46-11-14.14-14.46-23.03-3.47-8.87-5.19-19.8-5.19-32.75,0-14.16,1.94-26.29,5.87-36.37,3.9-10.09,9.42-18.53,16.5-25.3,7.06-6.78,15.28-11.75,24.62-14.93,9.32-3.16,19.11-4.73,29.37-4.73,12.03,0,22.89,1.49,32.53,4.5,9.64,3.03,17.77,7.92,24.4,14.68,6.61,6.78,11.68,15.45,15.13,25.99,3.46,10.56,5.19,23.35,5.19,38.41v1.92c0,2.68-2.17,4.84-4.84,4.84h-21.02c-2.68,0-4.84-2.17-4.84-4.84v-3.28c0-11.75-1.59-21.62-4.74-29.59-3.18-7.98-8-14.07-14.46-18.29-6.48-4.22-15.3-6.33-26.44-6.33-7.83,0-15.13,1.51-21.91,4.52-6.78,3.01-12.35,8.13-16.72,15.36-4.37,7.23-6.54,17.17-6.54,29.82,0,10.24,1.79,18.83,5.42,25.76,3.61,6.93,8.43,12.72,14.46,17.39,6.02,4.67,12.8,8.8,20.33,12.42,7.53,3.61,15.28,7.08,23.26,10.39,7.98,3.33,15.67,7.23,23.05,11.75,7.38,4.52,14.24,9.94,20.55,16.25,6.33,6.33,11.23,14.16,14.68,23.5,3.46,9.34,5.19,20.79,5.19,34.34,0,22.29-3.53,40.05-10.61,53.32Z"/>
    </g>
  </g>
</svg>