<?xml version="1.0" encoding="UTF-8"?><svg id="Camada_2" xmlns="http://www.w3.org/2000/svg" viewBox="0 0 39.83 39.44"><defs><style>.cls-1{fill:#fff;}</style></defs><g id="Camada_1-2"><path class="cls-1" d="M34.44,.02L6.33,2.69C2.75,3.03,0,6.4,0,10.45V28.99c0,4.05,2.75,7.42,6.33,7.76l28.11,2.67c2.89,.27,5.39-2,5.39-4.9V4.92C39.83,2.02,37.33-.25,34.44,.02Zm-3.78,28.34c-1,1.2-2.38,2.08-4.12,2.64-1.74,.55-3.71,.83-5.91,.83-1.82,0-3.5-.12-5.06-.36-1.55-.24-2.93-.65-4.12-1.23-1.19-.58-2.12-1.38-2.8-2.41-.67-1.03-1-2.33-1-3.89v-.18c0-.08,.01-.17,.04-.26h7.66c-.04,.09-.07,.18-.07,.26v.22c0,.68,.19,1.2,.58,1.56,.39,.36,.92,.6,1.62,.73,.69,.13,1.48,.19,2.37,.19,.36,0,.73,0,1.11-.02,.37-.01,.74-.04,1.11-.1,.36-.06,.7-.14,.98-.25,.3-.11,.54-.26,.7-.46,.18-.19,.26-.43,.26-.73,0-.41-.23-.74-.66-.99-.45-.25-1.05-.45-1.81-.6-.76-.15-1.61-.29-2.56-.42-.94-.14-1.92-.3-2.94-.49-1.03-.19-2.01-.46-2.96-.8-.94-.34-1.79-.78-2.55-1.32-.76-.54-1.37-1.24-1.81-2.09-.44-.85-.66-1.87-.66-3.07,0-1.36,.31-2.52,.95-3.47,.64-.95,1.52-1.72,2.61-2.32,1.11-.59,2.37-1.02,3.79-1.29,1.41-.27,2.91-.41,4.48-.41s3.07,.14,4.44,.41c1.37,.27,2.6,.7,3.67,1.27,1.06,.58,1.9,1.32,2.54,2.22,.62,.91,.94,2.01,.94,3.3v.41h-7.57v-.14c0-.43-.13-.82-.39-1.18-.26-.35-.66-.63-1.2-.86-.55-.23-1.27-.34-2.15-.34s-1.62,.07-2.2,.21c-.58,.14-1.02,.32-1.31,.56-.3,.23-.44,.49-.44,.76,0,.43,.22,.77,.66,1.02,.44,.25,1.06,.45,1.83,.61,.77,.16,1.63,.31,2.57,.44,.94,.14,1.92,.29,2.93,.46,1,.17,1.98,.41,2.93,.71,.95,.31,1.8,.73,2.55,1.26,.76,.54,1.37,1.2,1.83,1.99,.45,.79,.68,1.77,.68,2.93,0,1.93-.51,3.49-1.52,4.69Z"/></g></svg>