<?xml version="1.0" encoding="UTF-8"?>
<svg id="Camada_2" data-name="Camada 2" xmlns="http://www.w3.org/2000/svg" xmlns:xlink="http://www.w3.org/1999/xlink" viewBox="0 0 1871.44 900.21">
  <defs>
    <style>
      .cls-1 {
        fill: #fff;
      }

      .cls-2 {
        fill: url(#Gradiente_sem_nome_2);
      }
    </style>
    <linearGradient id="Gradiente_sem_nome_2" data-name="Gradiente sem nome 2" x1="0" y1="450.11" x2="1871.44" y2="450.11" gradientUnits="userSpaceOnUse">
      <stop offset="0" stop-color="#ff00bd"/>
      <stop offset="1" stop-color="#ff7000"/>
    </linearGradient>
  </defs>
  <g id="Camada_1-2" data-name="Camada 1">
    <path class="cls-2" d="m1871.44,231.26v437.69c0,135.99-116.77,242.61-252.2,230.29L175.06,767.78C75.91,758.76,0,675.62,0,576.06v-251.92c0-99.56,75.91-182.7,175.06-191.72L1619.24.97c135.43-12.33,252.2,94.3,252.2,230.29Z"/>
    <g>
      <path class="cls-1" d="m1709.55,519.41c0,22.29-3.53,40.05-10.61,53.32-7.08,13.25-16.87,22.89-29.37,28.9-12.5,6.03-26.88,9.04-43.16,9.04-12.05,0-23.11-1.35-33.2-4.07-10.09-2.71-18.68-7.45-25.76-14.22-7.08-6.78-12.5-16.2-16.25-28.25-3.77-12.03-5.64-27.26-5.64-45.62v-2.85c0-2.68,2.17-4.84,4.84-4.84h21.92c2.62,0,4.84,2.08,4.84,4.7,0,.02,0,.03,0,.05v4.3c0,15.08,1.51,27.18,4.52,36.37,3.01,9.19,8.05,15.9,15.13,20.1,7.08,4.22,16.94,6.33,29.59,6.33,6.33,0,12.12-.69,17.41-2.04,5.25-1.36,9.99-3.62,14.22-6.78,4.22-3.16,7.68-7.06,10.41-11.75,2.71-4.65,4.8-10.31,6.31-16.94,1.51-6.61,2.26-14.29,2.26-23.03,0-10.54-1.81-19.35-5.42-26.44-3.62-7.06-8.44-12.95-14.46-17.62-6.03-4.67-12.82-8.87-20.33-12.65-7.53-3.76-15.3-7.38-23.28-10.84-7.98-3.47-15.66-7.3-23.04-11.53-7.38-4.22-14.16-9.57-20.33-16.05-6.18-6.46-11-14.14-14.46-23.03-3.47-8.87-5.19-19.8-5.19-32.75,0-14.16,1.94-26.29,5.87-36.37,3.9-10.09,9.42-18.53,16.5-25.3,7.06-6.78,15.28-11.75,24.62-14.93,9.32-3.16,19.11-4.73,29.37-4.73,12.03,0,22.89,1.49,32.53,4.5,9.64,3.03,17.77,7.92,24.4,14.68,6.61,6.78,11.68,15.45,15.13,25.99,3.46,10.56,5.19,23.35,5.19,38.41v1.92c0,2.68-2.17,4.84-4.84,4.84h-21.02c-2.68,0-4.84-2.17-4.84-4.84v-3.28c0-11.75-1.59-21.62-4.75-29.59-3.18-7.98-8-14.07-14.46-18.29-6.48-4.22-15.3-6.33-26.44-6.33-7.83,0-15.13,1.51-21.91,4.52-6.78,3.01-12.35,8.13-16.72,15.36-4.37,7.23-6.54,17.17-6.54,29.82,0,10.24,1.79,18.83,5.42,25.76,3.61,6.93,8.43,12.72,14.46,17.39,6.02,4.67,12.8,8.8,20.33,12.42,7.53,3.61,15.28,7.08,23.26,10.39,7.98,3.33,15.67,7.23,23.05,11.75,7.38,4.52,14.24,9.94,20.55,16.25,6.33,6.33,11.23,14.16,14.68,23.5,3.46,9.34,5.19,20.79,5.19,34.34Z"/>
      <path class="cls-1" d="m1548.85,299.74v20.92c0,4.13-3.35,7.47-7.47,7.47h-72.51v272.68c0,4.13-3.35,7.47-7.47,7.47h-24.36c-4.13,0-7.47-3.35-7.47-7.47v-272.68h-72.49c-4.13,0-7.47-3.35-7.47-7.47v-20.92c0-4.13,3.35-7.47,7.47-7.47h184.3c4.13,0,7.47,3.35,7.47,7.47Z"/>
      <path class="cls-1" d="m1291.76,473.93c14.76-7.49,26.06-19.04,33.89-34.66,7.83-15.6,11.75-34.34,11.75-56.2,0-18.08-3.1-34.17-9.27-48.22-6.18-14.05-15.9-25.13-29.14-33.25-13.25-8.11-31.03-12.18-53.3-12.18h-120.85c-4.13,0-7.47,3.35-7.47,7.47v306.29c0,4.13,3.35,7.47,7.47,7.47h32.96c4.13,0,7.47-3.35,7.47-7.47v-117.55h80.43l50.04,120.42c1.16,2.79,3.88,4.61,6.9,4.61h35.69c5.35,0,8.97-5.46,6.88-10.38l-53.45-126.35Zm-14.46-45.88c-7.83,10.29-19.88,15.45-36.13,15.45h-75.91v-111.46h74.54c11.75,0,21.24,1.96,28.47,5.87,7.23,3.9,12.5,9.83,15.8,17.79,3.31,7.96,4.97,17.73,4.97,29.27,0,18.42-3.92,32.77-11.75,43.08Z"/>
      <path class="cls-1" d="m982.32,289.43h-62.08c-3.19,0-6.03,2.03-7.07,5.05l-105.11,306.29c-1.66,4.85,1.94,9.9,7.07,9.9h42.87c3.22,0,6.08-2.07,7.1-5.13l21.36-64.65h126.94l21.36,64.65c1.01,3.06,3.87,5.13,7.1,5.13h45.58c5.13,0,8.73-5.05,7.07-9.9l-105.11-306.29c-1.04-3.02-3.88-5.05-7.07-5.05Zm-79.61,201.36l28.47-90.37c1.49-4.05,3.31-9.43,5.42-16.16,2.11-6.71,4.22-13.88,6.33-21.54,2.09-7.64,4.05-14.27,5.87-19.9h2.26c1.2,4.37,2.56,9.36,4.07,14.98,1.49,5.62,3.08,11.17,4.75,16.63,1.64,5.46,3.16,10.46,4.5,14.98,1.36,4.52,2.63,8.2,3.85,11l28.47,90.37h-93.99Z"/>
      <path class="cls-1" d="m792.84,297.02v306.29c0,4.13-3.35,7.47-7.47,7.47h-66.84c-4.13,0-7.47-3.35-7.47-7.47v-121.58h-131.02v121.58c0,4.13-3.35,7.47-7.47,7.47h-66.38c-4.13,0-7.47-3.35-7.47-7.47v-306.29c0-4.13,3.35-7.47,7.47-7.47h66.38c4.13,0,7.47,3.35,7.47,7.47v115.51h131.02v-115.51c0-4.13,3.35-7.47,7.47-7.47h66.84c4.13,0,7.47,3.35,7.47,7.47Z"/>
      <g>
        <path class="cls-1" d="m162.02,500.22c0-1.06-.3,1.2,0,0h0Z"/>
        <path class="cls-1" d="m477.84,463.7c-6.03-10.52-14.09-19.32-24.17-26.38s-21.39-12.63-33.89-16.68c-12.5-4.05-25.46-7.21-38.86-9.47-13.39-2.24-26.36-4.28-38.86-6.07-12.5-1.81-23.88-3.76-34.09-5.87-10.26-2.11-18.31-4.8-24.17-8.13-5.89-3.29-8.82-7.81-8.82-13.53,0-3.61,1.96-6.99,5.88-10.14,3.9-3.16,9.7-5.62,17.39-7.44,7.68-1.79,17.39-2.71,29.13-2.71s21.24,1.51,28.47,4.52c7.23,3.01,12.57,6.84,16.05,11.49,2.3,3.11,3.84,7.23,4.61,11.33.66,3.51,3.75,6.03,7.32,6.03h85.89c4.3,0,7.7-3.63,7.47-7.92-.93-17.26-5.01-30.75-12.24-41.22-8.28-12.03-19.5-21.88-33.65-29.54-14.16-7.66-30.36-13.3-48.57-16.91-18.23-3.61-37.89-5.4-58.96-5.4s-40.6,1.79-59.41,5.4c-18.83,3.61-35.55,9.32-50.16,17.13-14.61,7.83-26.12,18.03-34.56,30.66-8.43,12.63-12.65,27.95-12.65,46,0,15.94,2.93,29.52,8.82,40.8,5.87,11.27,13.84,20.51,23.93,27.72s21.39,13.08,33.89,17.58c12.5,4.5,25.54,8.05,39.08,10.59,13.56,2.56,26.58,4.75,39.08,6.54,12.5,1.81,23.8,3.68,33.89,5.64,10.09,1.96,18.07,4.58,23.95,7.88,5.87,3.31,8.8,7.66,8.8,13.08,0,3.9-1.12,7.14-3.38,9.7s-5.36,4.58-9.27,6.09c-3.92,1.49-8.29,2.63-13.1,3.38-4.82.75-9.71,1.2-14.68,1.35-4.97.15-9.86.22-14.68.22-11.75,0-22.21-.82-31.4-2.48-9.19-1.64-16.35-4.88-21.47-9.68-3.92-3.69-5.8-12.29-6.47-20.17-.33-3.89-3.55-6.88-7.45-6.88h-86.87c-4.23,0-7.67,3.51-7.47,7.74.87,18.53,4.91,37.75,12.69,49.73,8.89,13.69,21.24,24.36,37.05,32.02,15.82,7.66,34.04,13.08,54.68,16.23,20.63,3.16,42.99,4.73,67.09,4.73,29.22,0,55.35-3.68,78.39-11.04,23.04-7.36,41.27-19.02,54.66-34.94,13.4-15.94,20.1-36.67,20.1-62.23,0-15.32-3.01-28.25-9.02-38.77Z"/>
      </g>
    </g>
  </g>
</svg>