<?xml version="1.0" encoding="UTF-8"?><svg id="Camada_2" xmlns="http://www.w3.org/2000/svg" viewBox="0 0 144.98 144.98"><g id="Camada_1-2"><path d="M72.49,0C32.45,0,0,32.45,0,72.49s32.45,72.49,72.49,72.49,72.49-32.46,72.49-72.49S112.53,0,72.49,0Zm-14.36,36.78c3.72-3.73,8.51-5.59,14.36-5.59s10.64,1.86,14.36,5.59c3.73,3.72,5.59,8.51,5.59,14.36s-1.86,10.64-5.59,14.37-8.51,5.58-14.36,5.58-10.64-1.86-14.36-5.58-5.59-8.52-5.59-14.37,1.86-10.64,5.59-14.36Zm53.26,73.34c-2.27,2.26-5.39,3.66-8.84,3.66H42.43c-6.9,0-12.5-5.59-12.5-12.5,0-3.37,.84-6.25,2.53-8.64,1.68-2.4,3.85-4.21,6.51-5.46,5.94-2.66,11.64-4.65,17.09-5.98,5.46-1.33,10.93-2,16.43-2s10.95,.69,16.36,2.07c5.41,1.37,11.08,3.34,17.02,5.91,2.75,1.25,4.97,3.06,6.65,5.46,1.69,2.39,2.53,5.27,2.53,8.64s-1.4,6.58-3.66,8.84Z"/></g></svg>